#!OML:ASF H:\Terrain\Patient Classification 1\Terrain2\Thursday\justin.ASF
:FULLY-SPECIFIED
:DEGREES
3472
root 28.8526 17.4736 -21.7298 1378.78 -89.1766 62.8626
lowerback 4.92978 1.47198 -0.734364
upperback 2.69469 1.879 2.14818
thorax -0.0892686 0.893121 2.52498
lowerneck -13.7481 -1.95949 -9.51714
upperneck 36.5571 -3.5258 5.4315
head 15.3854 -2.52672 3.28357
rclavicle 1.35174e-014 -7.15625e-015
rhumerus -30.6051 -19.8609 -75.8511
rradius 24.4249
rwrist -7.97217
rhand -21.4066 12.8676
rfingers 7.12502
rthumb 4.98171 -17.0539
lclavicle 1.35174e-014 -7.15625e-015
lhumerus -37.9952 8.17398 80.2946
lradius 31.1572
lwrist 5.83633
lhand -19.6604 22.8072
lfingers 7.12502
lthumb 6.66771 52.6822
rfemur -26.0815 -0.0594626 17.3856
rtibia 54.5306
rfoot -19.8132 5.02634
rtoes -9.84948
lfemur -5.10731 1.44417 -22.3884
ltibia 23.1242
lfoot -15.7929 -7.45956
ltoes 20.9873
3473
root 28.8267 17.4634 -21.7106 1372.31 -89.3337 69.2944
lowerback 5.02902 1.39916 -0.573553
upperback 2.78683 1.78398 2.14732
thorax -0.0402691 0.844459 2.4377
lowerneck -13.9919 -1.94455 -9.50999
upperneck 36.6963 -3.46838 5.37138
head 15.505 -2.51168 3.26925
rclavicle -1.49089e-014 -3.18055e-015
rhumerus -30.4249 -19.4716 -76.1664
rradius 24.6244
rwrist -8.28864
rhand -21.246 12.9177
rfingers 7.12502
rthumb 5.13679 -17
lclavicle -1.49089e-014 -3.18055e-015
lhumerus -37.8148 8.1122 80.2623
lradius 30.4506
lwrist 5.87338
lhand -19.8133 22.262
lfingers 7.12502
lthumb 6.52005 52.1416
rfemur -26.643 -0.79823 17.8136
rtibia 54.3377
rfoot -20.2969 3.72553
rtoes -11.2085
lfemur -4.79893 1.23884 -22.3707
ltibia 22.8974
lfoot -15.8651 -7.14538
ltoes 21.6424
3474
root 28.798 17.4614 -21.6897 1358.21 -89.3696 83.3833
lowerback 5.06219 1.22294 -0.494414
upperback 2.92109 1.546 2.1574
thorax 0.0922656 0.722246 2.41707
lowerneck -14.3366 -1.76171 -9.61673
upperneck 36.7532 -3.11069 5.36476
head 15.579 -2.37296 3.3487
rclavicle -6.4605e-015 3.18055e-015
rhumerus -30.0483 -18.543 -76.6712
rradius 24.8383
rwrist -8.75798
rhand -21.4896 12.8221
rfingers 7.12502
rthumb 4.90159 -17.1012
lclavicle -6.4605e-015 3.18055e-015
lhumerus -37.7739 8.84385 80.0222
lradius 29.8826
lwrist 5.15227
lhand -19.7826 22.1339
lfingers 7.12502
lthumb 6.54971 52.0126
rfemur -27.1928 -1.50284 18.0626
rtibia 53.9547
rfoot -20.3303 2.90999
rtoes -9.5388
lfemur -4.56079 1.09312 -22.4879
ltibia 22.7363
lfoot -15.9115 -6.87043
ltoes 22.0598
3475
root 28.7637 17.4826 -21.6801 1337.78 -89.2639 103.78
lowerback 5.0109 1.18222 -0.649701
upperback 3.07291 1.4788 2.17448
thorax 0.275805 0.682471 2.52841
lowerneck -14.5155 -1.65175 -9.75922
upperneck 36.7589 -2.89647 5.42961
head 15.6053 -2.29074 3.44005
rclavicle -1.30204e-014 7.15625e-015
rhumerus -29.8363 -18.2221 -76.9088
rradius 25.0665
rwrist -8.92909
rhand -21.6962 12.8517
rfingers 7.12502
rthumb 4.70208 -17.0761
lclavicle -1.30204e-014 7.15625e-015
lhumerus -37.7277 9.52511 79.8002
lradius 29.3614
lwrist 4.06323
lhand -19.4338 22.5431
lfingers 7.12502
lthumb 6.88642 52.4111
rfemur -27.6731 -1.82765 18.1412
rtibia 53.4613
rfoot -20.2053 2.67158
rtoes -5.91972
lfemur -4.28256 1.08958 -22.6274
ltibia 22.6112
lfoot -15.8584 -6.82557
ltoes 23.327
3476
root 28.7335 17.4734 -21.6792 1316.6 -89.3825 124.906
lowerback 5.08952 1.22159 -0.649653
upperback 3.12401 1.5273 2.29943
thorax 0.279074 0.703699 2.65396
lowerneck -14.3328 -1.64579 -9.95731
upperneck 36.6365 -2.90065 5.58918
head 15.5078 -2.29705 3.53999
rclavicle -1.19271e-014 -1.27222e-014
rhumerus -29.8862 -18.3312 -76.8789
rradius 25.2498
rwrist -8.77614
rhand -21.4972 12.9464
rfingers 7.12502
rthumb 4.8943 -16.9771
lclavicle -1.19271e-014 -1.27222e-014
lhumerus -37.8212 9.6136 79.7991
lradius 28.9473
lwrist 3.4824
lhand -19.3687 22.9005
lfingers 7.12502
lthumb 6.94925 52.7665
rfemur -28.0813 -2.5769 18.8921
rtibia 52.7173
rfoot -20.3334 0.633122
rtoes -11.8371
lfemur -4.00961 1.14019 -22.3751
ltibia 22.4559
lfoot -15.7756 -6.97329
ltoes 23.8433
3477
root 28.7064 17.4689 -21.6727 1295.72 -89.4519 145.865
lowerback 5.2241 1.25795 -0.591491
upperback 3.02652 1.58159 2.35584
thorax 0.101165 0.733708 2.67256
lowerneck -14.0797 -1.60498 -9.88146
upperneck 36.6019 -2.9339 5.67185
head 15.432 -2.29489 3.55431
rclavicle 1.21259e-014 3.18055e-015
rhumerus -30.1055 -18.2116 -76.9424
rradius 25.4728
rwrist -8.91594
rhand -21.4338 12.9152
rfingers 7.12502
rthumb 4.95549 -17.0069
lclavicle 1.21259e-014 3.18055e-015
lhumerus -38.1319 9.44927 79.7942
lradius 28.6798
lwrist 3.11203
lhand -19.4462 22.7723
lfingers 7.12502
lthumb 6.87442 52.6407
rfemur -28.641 -3.15744 19.5055
rtibia 51.9435
rfoot -20.429 -0.732537
rtoes -12.9572
lfemur -3.86345 1.3599 -22.1391
ltibia 22.1738
lfoot -15.7325 -7.14884
ltoes 23.1421
3478
root 28.6765 17.4767 -21.6605 1283.37 -89.4698 158.397
lowerback 5.15078 1.27367 -0.431702
upperback 2.99804 1.61083 2.27898
thorax 0.117523 0.751593 2.50301
lowerneck -14.1652 -1.59265 -9.49583
upperneck 36.7604 -3.00063 5.54931
head 15.5264 -2.29235 3.42538
rclavicle -8.54774e-015 -6.36111e-015
rhumerus -30.1482 -18.3446 -77.1
rradius 25.6098
rwrist -8.93257
rhand -21.5596 13.0836
rfingers 7.12502
rthumb 4.83403 -16.8413
lclavicle -8.54774e-015 -6.36111e-015
lhumerus -38.1594 9.30643 79.666
lradius 28.3431
lwrist 2.6014
lhand -19.173 22.5482
lfingers 7.12502
lthumb 7.13817 52.4078
rfemur -29.2473 -3.71748 19.9158
rtibia 51.0454
rfoot -20.4702 -1.2267
rtoes -8.71884
lfemur -3.87778 1.42921 -22.0555
ltibia 21.9935
lfoot -15.5899 -7.10983
ltoes 23.5173
3479
root 28.6408 17.4942 -21.644 1291.52 -89.4484 150.358
lowerback 4.95753 1.15779 -0.491891
upperback 3.11804 1.44814 2.29795
thorax 0.354233 0.665659 2.57003
lowerneck -14.3168 -1.5927 -9.64369
upperneck 36.7405 -2.91011 5.49779
head 15.5466 -2.27738 3.44483
rclavicle -6.95746e-016 2.46493e-014
rhumerus -29.8496 -18.1516 -77.1936
rradius 25.6933
rwrist -8.96299
rhand -21.5689 13.0349
rfingers 7.12502
rthumb 4.82501 -16.8902
lclavicle -6.95746e-016 2.46493e-014
lhumerus -38.0793 9.75446 79.6245
lradius 27.9986
lwrist 1.84343
lhand -18.5554 22.7809
lfingers 7.12502
lthumb 7.73428 52.6194
rfemur -29.7234 -4.39478 20.0579
rtibia 50.1145
rfoot -20.7313 -1.23158
rtoes -2.8224
lfemur -3.71925 0.997055 -22.2811
ltibia 21.6944
lfoot -15.3662 -6.56105
ltoes 24.0179
3480
root 28.6039 17.4999 -21.6335 1297.14 -89.354 144.748
lowerback 4.9387 1.13252 -0.701181
upperback 3.19465 1.40282 2.34229
thorax 0.439895 0.637571 2.73704
lowerneck -14.2954 -1.61915 -9.80836
upperneck 36.7243 -2.90129 5.4963
head 15.537 -2.29688 3.47445
rclavicle -6.95746e-015 -1.59028e-015
rhumerus -29.8057 -17.7644 -77.2863
rradius 25.9874
rwrist -9.41834
rhand -21.5711 12.6813
rfingers 7.12502
rthumb 4.82295 -17.2438
lclavicle -6.95746e-015 -1.59028e-015
lhumerus -38.1491 9.88232 79.7348
lradius 27.7265
lwrist 1.17479
lhand -17.9836 23.033
lfingers 7.12502
lthumb 8.28616 52.8505
rfemur -30.0732 -4.9268 20.2363
rtibia 49.1176
rfoot -20.8645 -1.69294
rtoes 0.736728
lfemur -3.43544 0.916635 -22.4658
ltibia 21.3957
lfoot -15.3355 -6.29669
ltoes 22.9262
3481
root 28.5672 17.4928 -21.631 1290.96 -89.2981 150.915
lowerback 5.0723 1.31211 -0.688033
upperback 3.14786 1.64619 2.20803
thorax 0.308597 0.76325 2.57609
lowerneck -14.2281 -1.72042 -9.32629
upperneck 36.9138 -3.21827 5.42147
head 15.6361 -2.38401 3.30606
rclavicle -1.8487e-014 -1.03368e-014
rhumerus -30.2214 -18.001 -77.4041
rradius 26.3956
rwrist -9.78462
rhand -21.5061 12.6043
rfingers 7.12502
rthumb 4.8857 -17.3193
lclavicle -1.8487e-014 -1.03368e-014
lhumerus -38.157 9.03558 79.8217
lradius 27.4221
lwrist 0.976865
lhand -17.8017 23.0155
lfingers 7.12502
lthumb 8.4617 52.826
rfemur -30.3756 -5.40949 20.6511
rtibia 47.9741
rfoot -20.6226 -2.45367
rtoes 2.39991
lfemur -3.17624 1.30865 -22.3942
ltibia 21.154
lfoot -15.263 -6.55219
ltoes 22.2298
